# xmcd CD database file
#
# Track frame offsets:
#	150
#	20595
#	37632
#	58992
#	75707
#	90557
#	104307
#	119020
#	138982
#	159675
#	180710
#	199112
#	224737
#	243237
#	258745
#
# Disc length: 3691 seconds
#
# Revision: 6
# Processed by: cddbd v1.5PL3 Copyright (c) Steve Scherf et al.
# Submitted via: CDex 1.50
#
DISCID=d80e690f
DTITLE=ENUFF Z'NUFF - Seven
DYEAR=1997
DGENRE=Hard Rock
TTITLE0=Wheels
TTITLE1=Still Have Tonight
TTITLE2=Down Hill
TTITLE3=It's No Good
TTITLE4=5 Smiles Away
TTITLE5=L.A. Burning
TTITLE6=New Kind Of Motion
TTITLE7=Clown On The Town
TTITLE8=You And I
TTITLE9=On My Way Back Home
TTITLE10=We Dont Have To Be Friends
TTITLE11=So Sad To See You
TTITLE12=Jealous Guy
TTITLE13=For You Girl
TTITLE14=I Won't Let You Go
EXTD=YEAR: 1997
EXTT0=
EXTT1=
EXTT2=
EXTT3=
EXTT4=
EXTT5=
EXTT6=
EXTT7=
EXTT8=
EXTT9=
EXTT10=
EXTT11=
EXTT12=
EXTT13=
EXTT14=
PLAYORDER=
